<svg xmlns="http://www.w3.org/2000/svg" width="480" height="340" viewBox="-120 -160 240 170" xmlns:c2pa="http://c2pa.org/manifest"><metadata><c2pa:manifest>AAAWgmp1bWIAAAAeanVtZGMycGEAEQAQgAAAqgA4m3EDYzJwYQAAABZcanVtYgAAAEdqdW1kYzJtYQARABCAAACqADibcQN1cm46YzJwYTpmZjNhNjU5My03Y2FmLTQ5YzItYTc1Mi00Y2E1YWI5NDQ0ZTIAAAADl2p1bWIAAAApanVtZGMyYXMAEQAQgAAAqgA4m3EDYzJwYS5hc3NlcnRpb25zAAAAALxqdW1iAAAARGp1bWRjYm9yABEAEIAAAKoAOJtxE2MycGEuaW5ncmVkaWVudC52MwAAAAAYYzJzaEYh8/EXKDjWQGIURSIOsG0AAABwY2JvcqNpZGM6Zm9ybWF0bWltYWdlL3N2Zyt4bWxqaW5zdGFuY2VJRHgseG1wOmlpZDpkNGIzYzAzNS1mYjk2LTQyMmMtOGFmOS02MTgzYWM2ZTQ5MGNscmVsYXRpb25zaGlwaHBhcmVudE9mAAAB4mp1bWIAAABBanVtZGNib3IAEQAQgAAAqgA4m3ETYzJwYS5hY3Rpb25zLnYyAAAAABhjMnNotqXiB73IPWpQ4IjZ+mRoLQAAAZljYm9yomdhY3Rpb25zgqJmYWN0aW9ua2MycGEub3BlbmVkanBhcmFtZXRlcnOha2luZ3JlZGllbnRzgaJjdXJseC1zZWxmI2p1bWJmPWMycGEuYXNzZXJ0aW9ucy9jMnBhLmluZ3JlZGllbnQudjNkaGFzaFggC4hOhJqZ4jE3WshJ43ziA8MxGj44eP0N4xwCfYBGpF+kZmFjdGlvbngdY29tLmFudGhyb3BpYy5jbGF1ZGUucHJvdmlkZWRqcGFyYW1ldGVyc6F4H2NvbS5hbnRocm9waWMub3JpZ2luLWNvbmZpZGVuY2VndW5rbm93bmtkZXNjcmlwdGlvbnhmQ2xhdWRlIHByb3ZpZGVkIHRoaXMgZmlsZSBhdCB0aGUgcmVxdWVzdCBvZiBhIHVzZXIgYW5kIG1heSBoYXZlIGNyZWF0ZWQgb3IgbW9kaWZpZWQgdGhlIGZpbGUgY29udGVudHMubXNvZnR3YXJlQWdlbnShZG5hbWVmQ2xhdWRlcmFsbEFjdGlvbnNJbmNsdWRlZPUAAADIanVtYgAAAEBqdW1kY2JvcgARABCAAACqADibcRNjMnBhLmhhc2guZGF0YQAAAAAYYzJzaG1fAOBM4pt0U5+NTX5t9goAAACAY2JvcqVjYWxnZnNoYTI1NmNwYWRNAAAAAAAAAAAAAAAAAGRoYXNoWCCA6XUZUaPoAOZUyyGmXtHp48PQAX8g7oAfm9NLlf5fQmRuYW1lbmp1bWJmIG1hbmlmZXN0amV4Y2x1c2lvbnOBomVzdGFydBicZmxlbmd0aBkeBAAAAj5qdW1iAAAAJ2p1bWRjMmNsABEAEIAAAKoAOJtxA2MycGEuY2xhaW0udjIAAAACD2Nib3KlY2FsZ2ZzaGEyNTZpc2lnbmF0dXJleE1zZWxmI2p1bWJmPS9jMnBhL3VybjpjMnBhOmZmM2E2NTkzLTdjYWYtNDljMi1hNzUyLTRjYTVhYjk0NDRlMi9jMnBhLnNpZ25hdHVyZWppbnN0YW5jZUlEeCx4bXA6aWlkOjk4NzhiMzBmLTZjZjgtNGM3Yi1iMjE0LTBmOGQxMDEwMGQ0NHJjcmVhdGVkX2Fzc2VydGlvbnODomN1cmx4LXNlbGYjanVtYmY9YzJwYS5hc3NlcnRpb25zL2MycGEuaW5ncmVkaWVudC52M2RoYXNoWCALiE6EmpniMTdayEnjfOIDwzEaPjh4/Q3jHAJ9gEakX6JjdXJseCpzZWxmI2p1bWJmPWMycGEuYXNzZXJ0aW9ucy9jMnBhLmFjdGlvbnMudjJkaGFzaFggEC+tz0dG3w+rcJbBUAcViXAqdfwl96SGfsmJpcvIZaKiY3VybHgpc2VsZiNqdW1iZj1jMnBhLmFzc2VydGlvbnMvYzJwYS5oYXNoLmRhdGFkaGFzaFggcvgc7CNNfYsGMHobb2hw0/cOV8WeBpQqHEc0EzwmlFJ0Y2xhaW1fZ2VuZXJhdG9yX2luZm+jZG5hbWVvQW50aHJvcGljIEZpbGVzZ3ZlcnNpb25lMS4wLjBrc3BlY1ZlcnNpb25lMi40LjAAABA4anVtYgAAAChqdW1kYzJjcwARABCAAACqADibcQNjMnBhLnNpZ25hdHVyZQAAABAIY2JvctKEWQISogEmGCFZAgowggIGMIIBjaADAgECAhRA5aAK7sI50L64g/oGQgU9Z1UTADAKBggqhkjOPQQDAzBJMRcwFQYDVQQKEw5BbnRocm9waWMsIFBCQzEuMCwGA1UEAxMlQW50aHJvcGljIENvbnRlbnQgQ3JlZGVudGlhbHMgUm9vdCBDQTAeFw0yNjA4MDcxODQzNTZaFw0yODA4MDYxOTQzNTZaMEQxFzAVBgNVBAoTDkFudGhyb3BpYywgUEJDMSkwJwYDVQQDEyBBbnRocm9waWMgQ2xhdWRlIENvbnRlbnQgU2lnbmluZzBZMBMGByqGSM49AgEGCCqGSM49AwEHA0IABJh6CmvLUBgFFNU0vUKlOVtE6djd17L5SuwX0LemFisBM3dkd/3cyjxFA3Qo5S46fX0/ihY0VZ7mfb9KF703t5OjWDBWMA4GA1UdDwEB/wQEAwIHgDAVBgNVHSUEDjAMBgorBgEEAYPoXgIBMAwGA1UdEwEB/wQCMAAwHwYDVR0jBBgwFoAUzlHiBIFOZFsj+OPEz5o+nMHXXMIwCgYIKoZIzj0EAwMDZwAwZAIwMXMdFJ4BetLLVY7ORuE9noqbbAZOZn/aArXyTwFAZfKrPzxF2vPoJNf1+UCdg1XGAjBwX1zd9WGqYkqmL5SFqw1QySjr1zJfpJM9+1rdDwSPLMOPOjKuiXjoU/pUUeG9RwmhY3BhZFkNngAAAAAAAAAAAAAAAAAAAAAAAAAAAAAAAAAAAAAAAAAAAAAAAAAAAAAAAAAAAAAAAAAAAAAAAAAAAAAAAAAAAAAAAAAAAAAAAAAAAAAAAAAAAAAAAAAAAAAAAAAAAAAAAAAAAAAAAAAAAAAAAAAAAAAAAAAAAAAAAAAAAAAAAAAAAAAAAAAAAAAAAAAAAAAAAAAAAAAAAAAAAAAAAAAAAAAAAAAAAAAAAAAAAAAAAAAAAAAAAAAAAAAAAAAAAAAAAAAAAAAAAAAAAAAAAAAAAAAAAAAAAAAAAAAAAAAAAAAAAAAAAAAAAAAAAAAAAAAAAAAAAAAAAAAAAAAAAAAAAAAAAAAAAAAAAAAAAAAAAAAAAAAAAAAAAAAAAAAAAAAAAAAAAAAAAAAAAAAAAAAAAAAAAAAAAAAAAAAAAAAAAAAAAAAAAAAAAAAAAAAAAAAAAAAAAAAAAAAAAAAAAAAAAAAAAAAAAAAAAAAAAAAAAAAAAAAAAAAAAAAAAAAAAAAAAAAAAAAAAAAAAAAAAAAAAAAAAAAAAAAAAAAAAAAAAAAAAAAAAAAAAAAAAAAAAAAAAAAAAAAAAAAAAAAAAAAAAAAAAAAAAAAAAAAAAAAAAAAAAAAAAAAAAAAAAAAAAAAAAAAAAAAAAAAAAAAAAAAAAAAAAAAAAAAAAAAAAAAAAAAAAAAAAAAAAAAAAAAAAAAAAAAAAAAAAAAAAAAAAAAAAAAAAAAAAAAAAAAAAAAAAAAAAAAAAAAAAAAAAAAAAAAAAAAAAAAAAAAAAAAAAAAAAAAAAAAAAAAAAAAAAAAAAAAAAAAAAAAAAAAAAAAAAAAAAAAAAAAAAAAAAAAAAAAAAAAAAAAAAAAAAAAAAAAAAAAAAAAAAAAAAAAAAAAAAAAAAAAAAAAAAAAAAAAAAAAAAAAAAAAAAAAAAAAAAAAAAAAAAAAAAAAAAAAAAAAAAAAAAAAAAAAAAAAAAAAAAAAAAAAAAAAAAAAAAAAAAAAAAAAAAAAAAAAAAAAAAAAAAAAAAAAAAAAAAAAAAAAAAAAAAAAAAAAAAAAAAAAAAAAAAAAAAAAAAAAAAAAAAAAAAAAAAAAAAAAAAAAAAAAAAAAAAAAAAAAAAAAAAAAAAAAAAAAAAAAAAAAAAAAAAAAAAAAAAAAAAAAAAAAAAAAAAAAAAAAAAAAAAAAAAAAAAAAAAAAAAAAAAAAAAAAAAAAAAAAAAAAAAAAAAAAAAAAAAAAAAAAAAAAAAAAAAAAAAAAAAAAAAAAAAAAAAAAAAAAAAAAAAAAAAAAAAAAAAAAAAAAAAAAAAAAAAAAAAAAAAAAAAAAAAAAAAAAAAAAAAAAAAAAAAAAAAAAAAAAAAAAAAAAAAAAAAAAAAAAAAAAAAAAAAAAAAAAAAAAAAAAAAAAAAAAAAAAAAAAAAAAAAAAAAAAAAAAAAAAAAAAAAAAAAAAAAAAAAAAAAAAAAAAAAAAAAAAAAAAAAAAAAAAAAAAAAAAAAAAAAAAAAAAAAAAAAAAAAAAAAAAAAAAAAAAAAAAAAAAAAAAAAAAAAAAAAAAAAAAAAAAAAAAAAAAAAAAAAAAAAAAAAAAAAAAAAAAAAAAAAAAAAAAAAAAAAAAAAAAAAAAAAAAAAAAAAAAAAAAAAAAAAAAAAAAAAAAAAAAAAAAAAAAAAAAAAAAAAAAAAAAAAAAAAAAAAAAAAAAAAAAAAAAAAAAAAAAAAAAAAAAAAAAAAAAAAAAAAAAAAAAAAAAAAAAAAAAAAAAAAAAAAAAAAAAAAAAAAAAAAAAAAAAAAAAAAAAAAAAAAAAAAAAAAAAAAAAAAAAAAAAAAAAAAAAAAAAAAAAAAAAAAAAAAAAAAAAAAAAAAAAAAAAAAAAAAAAAAAAAAAAAAAAAAAAAAAAAAAAAAAAAAAAAAAAAAAAAAAAAAAAAAAAAAAAAAAAAAAAAAAAAAAAAAAAAAAAAAAAAAAAAAAAAAAAAAAAAAAAAAAAAAAAAAAAAAAAAAAAAAAAAAAAAAAAAAAAAAAAAAAAAAAAAAAAAAAAAAAAAAAAAAAAAAAAAAAAAAAAAAAAAAAAAAAAAAAAAAAAAAAAAAAAAAAAAAAAAAAAAAAAAAAAAAAAAAAAAAAAAAAAAAAAAAAAAAAAAAAAAAAAAAAAAAAAAAAAAAAAAAAAAAAAAAAAAAAAAAAAAAAAAAAAAAAAAAAAAAAAAAAAAAAAAAAAAAAAAAAAAAAAAAAAAAAAAAAAAAAAAAAAAAAAAAAAAAAAAAAAAAAAAAAAAAAAAAAAAAAAAAAAAAAAAAAAAAAAAAAAAAAAAAAAAAAAAAAAAAAAAAAAAAAAAAAAAAAAAAAAAAAAAAAAAAAAAAAAAAAAAAAAAAAAAAAAAAAAAAAAAAAAAAAAAAAAAAAAAAAAAAAAAAAAAAAAAAAAAAAAAAAAAAAAAAAAAAAAAAAAAAAAAAAAAAAAAAAAAAAAAAAAAAAAAAAAAAAAAAAAAAAAAAAAAAAAAAAAAAAAAAAAAAAAAAAAAAAAAAAAAAAAAAAAAAAAAAAAAAAAAAAAAAAAAAAAAAAAAAAAAAAAAAAAAAAAAAAAAAAAAAAAAAAAAAAAAAAAAAAAAAAAAAAAAAAAAAAAAAAAAAAAAAAAAAAAAAAAAAAAAAAAAAAAAAAAAAAAAAAAAAAAAAAAAAAAAAAAAAAAAAAAAAAAAAAAAAAAAAAAAAAAAAAAAAAAAAAAAAAAAAAAAAAAAAAAAAAAAAAAAAAAAAAAAAAAAAAAAAAAAAAAAAAAAAAAAAAAAAAAAAAAAAAAAAAAAAAAAAAAAAAAAAAAAAAAAAAAAAAAAAAAAAAAAAAAAAAAAAAAAAAAAAAAAAAAAAAAAAAAAAAAAAAAAAAAAAAAAAAAAAAAAAAAAAAAAAAAAAAAAAAAAAAAAAAAAAAAAAAAAAAAAAAAAAAAAAAAAAAAAAAAAAAAAAAAAAAAAAAAAAAAAAAAAAAAAAAAAAAAAAAAAAAAAAAAAAAAAAAAAAAAAAAAAAAAAAAAAAAAAAAAAAAAAAAAAAAAAAAAAAAAAAAAAAAAAAAAAAAAAAAAAAAAAAAAAAAAAAAAAAAAAAAAAAAAAAAAAAAAAAAAAAAAAAAAAAAAAAAAAAAAAAAAAAAAAAAAAAAAAAAAAAAAAAAAAAAAAAAAAAAAAAAAAAAAAAAAAAAAAAAAAAAAAAAAAAAAAAAAAAAAAAAAAAAAAAAAAAAAAAAAAAAAAAAAAAAAAAAAAAAAAAAAAAAAAAAAAAAAAAAAAAAAAAAAAAAAAAAAAAAAAAAAAAAAAAAAAAAAAAAAAAAAAAAAAAAAAAAAAAAAAAAAAAAAAAAAAAAAAAAAAAAAAAAAAAAAAAAAAAAAAAAAAAAAAAAAAAAAAAAAAAAAAAAAAAAAAAAAAAAAAAAAAAAAAAAAAAAAAAAAAAAAAAAAAAAAAAAAAAAAAAAAAAAAAAAAAAAAAAAAAAAAAAAAAAAAAAAAAAAAAAAAAAAAAAAAAAAAAAAAAAAAAAAAAAAAAAAAAAAAAAAAAAAAAAAAAAAAAAAAAAAAAAAAAAAAAAAAAAAAAAAAAAAAAAAAAAAAAAAAAAAAAAAAAAAAAAAAAAAAAAAAAAAAAAAAAAAAAAAAAAAAAAAAAAAAAAAAAAAAAAAAAAAAAAAAAAAAAAAAAAAAAAAAAAAAAAAAAAAAAAAAAAAAAAAAAAAAAAAAAAAAAAAAAAAAAAAAAAAAAAAAAAAAAAAAAAAAAAAAAAAAAAAAAAAAAAAAAAAAAAAAAAAAAAAAAAAAAAAAAAAAAAAAAAAAAAAAAAAAAAAAAAAAAAAAAAAAAAAAAAAAAAAAAAAAAAAAAAAAAAAAAAAAAAAAAAAAAAAAAAAAAAAAAAAAAAAAAAAAAAAAAAAAAAAAAAAAAAAAAAAAAAAAAAAAAAAAAAAAAAAAAAAAAAAAAAAAAAAAAAAAAAAAAAAAAAAAAAAAAAAAAAAAAAAAAAAAAAAAAAAAAAAAAAAAAAAAAAAAAAAAAAAAAAAAAAAAAAAAAAAAAAAAAAAAAAAAAAAAAAAAAAAAAAAAAAAAAAAAAAAAAAAAAAAAAAAAAAAAAAAAAAAAAAAAAAAAAAAAAAAAAAAAAAAAAAAAAAAAAAAAAAAAAAAAAAAAAAAAAAAAAAAAAAAAAAAAAAAAAAAAAAAAAAAAAAAAAAAAAAAAAAAAAAAAAAAAAAAAAAAAAAAAAAAAAAAAAAAAAAAAAAAAAAAAAAAAAAAAAAAAAAAAAAAAAAAAAAAAAAAAAAAAAAAAAAAAAAAAAAAAAAAAAAAAAAAAAAAAAAAAAAAAAAAAAAAAAAAAAAAAAAAAAAAAAAAAAAAAAAAAAAAAAAAAAAAAAAAAAAAAAAAAAAAAAAAAAAAAAAAAAAAAAAAAAAAAAAAAAAAAAAAAAAAAAAAAAAAAAAAAAAAAAAAAAAAAAAAAAAAAAAAAAAAAAAAAAAAAAAAAAAAAAAAAAAAAAAAAAAAAAAAAAAAAAAAAAAAAAAAAAAAAAAAAAAAAAAAAAAAAAAAAAAAAAAAAAAAAAAAAAAAAAAAAAAAAAAAAAAAAAAAAAAAAAAAAAAAAAAAAAAAAAAAAAAAAAAAAAAAAAAAAAAAAAAAAAAAAAAAAAAAAAAAAAAAAAAAAAAAAAAAAAAPZYQLmCoenMRElreP0aBzd19cSPXqS5yZWjPdW9OAYkOjiWZaiY/CxhkgLi/zsmSUVuKRkl4Oq9AN1vIRbL1RlUoXs=</c2pa:manifest></metadata><defs></defs><ellipse cx="2" cy="1" rx="47.6" ry="6" fill="#1D1A2C" opacity="0.3"/><g transform="translate(0 -3)"><g transform="rotate(2 -24 -54)">
<clipPath id="c64"><path d="M-26 -46 C -52 -40 -82 -50 -96 -78 C -106 -100 -98 -124 -80 -130 C -76 -114 -72 -98 -62 -86 C -52 -74 -38 -64 -22 -62 Z"/></clipPath>
<path d="M-26 -46 C -52 -40 -82 -50 -96 -78 C -106 -100 -98 -124 -80 -130 C -76 -114 -72 -98 -62 -86 C -52 -74 -38 -64 -22 -62 Z" fill="#F27B2B"/>
<g clip-path="url(#c64)">
<path d="M-30 -50 C -56 -46 -84 -56 -100 -82 L -120 -40 L -20 -20 Z" fill="#C8521D"/>
<path d="M-90 -116 C -92 -100 -88 -86 -76 -76 C -86 -90 -90 -102 -88 -114 Z" fill="#FFAA5E"/>
<path d="M-130 -150 L -50 -150 L -58 -108 C -70 -102 -86 -98 -102 -98 L -130 -94 Z" fill="#FFF4E0"/><path d="M-130 -94 L -102 -98 C -96 -98 -92 -100 -90 -102 L -130 -80 Z" fill="#EACFA8"/><path d="M-92 -124 C -94 -114 -92 -106 -88 -102 C -90 -110 -90 -118 -88 -126 Z" fill="#fff"/>
</g>
<path d="M-26 -46 C -52 -40 -82 -50 -96 -78 C -106 -100 -98 -124 -80 -130 C -76 -114 -72 -98 -62 -86 C -52 -74 -38 -64 -22 -62 Z" fill="none" stroke="#1D1A2C" stroke-width="3.6" stroke-linejoin="round" stroke-linecap="round"/>
</g>
<g transform="rotate(-4 -20 -28)">
<clipPath id="c65"><path d="M-26 -30 C -26 -20 -25 -14 -26 -6 C -27 -1 -24 0 -19 0 L -14 0 C -10 0 -10 -4 -12 -7 C -14 -14 -14 -20 -14 -30 Z"/></clipPath>
<path d="M-26 -30 C -26 -20 -25 -14 -26 -6 C -27 -1 -24 0 -19 0 L -14 0 C -10 0 -10 -4 -12 -7 C -14 -14 -14 -20 -14 -30 Z" fill="#CF5A20"/>
<g clip-path="url(#c65)">
<path d="M-19 -34 L-6 -34 L-6 4 L-19 4 Z" fill="#A64316"/>
<path d="M-32 -15 C -24 -17 -16 -17 -6 -15 L-6 4 L-32 4 Z" fill="#3B2A33"/><path d="M-18 -17 L-6 -17 L-6 4 L-18 4 Z" fill="#231820"/>
</g>
<path d="M-26 -30 C -26 -20 -25 -14 -26 -6 C -27 -1 -24 0 -19 0 L -14 0 C -10 0 -10 -4 -12 -7 C -14 -14 -14 -20 -14 -30 Z" fill="none" stroke="#1D1A2C" stroke-width="3.6" stroke-linejoin="round" stroke-linecap="round"/>
</g>
<g transform="rotate(6 18 -28)">
<clipPath id="c66"><path d="M12 -30 C 12 -20 13 -14 12 -6 C 11 -1 14 0 19 0 L 24 0 C 28 0 28 -4 26 -7 C 24 -14 24 -20 24 -30 Z"/></clipPath>
<path d="M12 -30 C 12 -20 13 -14 12 -6 C 11 -1 14 0 19 0 L 24 0 C 28 0 28 -4 26 -7 C 24 -14 24 -20 24 -30 Z" fill="#CF5A20"/>
<g clip-path="url(#c66)">
<path d="M19 -34 L32 -34 L32 4 L19 4 Z" fill="#A64316"/>
<path d="M6 -15 C 14 -17 22 -17 32 -15 L32 4 L6 4 Z" fill="#3B2A33"/><path d="M20 -17 L32 -17 L32 4 L20 4 Z" fill="#231820"/>
</g>
<path d="M12 -30 C 12 -20 13 -14 12 -6 C 11 -1 14 0 19 0 L 24 0 C 28 0 28 -4 26 -7 C 24 -14 24 -20 24 -30 Z" fill="none" stroke="#1D1A2C" stroke-width="3.6" stroke-linejoin="round" stroke-linecap="round"/>
</g>
<g>
<clipPath id="c67"><path d="M-34 -40 C -38 -58 -16 -66 6 -63 C 28 -60 38 -48 33 -32 C 28 -19 -28 -18 -34 -40 Z"/></clipPath>
<path d="M-34 -40 C -38 -58 -16 -66 6 -63 C 28 -60 38 -48 33 -32 C 28 -19 -28 -18 -34 -40 Z" fill="#F27B2B"/>
<g clip-path="url(#c67)">
<path d="M-40 -33 C -16 -30 12 -30 40 -38 L 44 -8 L -44 -8 Z" fill="#C8521D"/>
<path d="M-24 -56 C -12 -62 4 -62 14 -59 C 2 -57 -12 -55 -24 -50 Z" fill="#FFAA5E"/>
<path d="M-20 -22 C -6 -32 16 -32 30 -26 C 22 -16 -12 -14 -20 -22 Z" fill="#FFF4E0"/><path d="M-20 -22 C -4 -24 16 -24 30 -26 C 22 -16 -12 -14 -20 -22 Z" fill="#EACFA8"/>
</g>
<path d="M-34 -40 C -38 -58 -16 -66 6 -63 C 28 -60 38 -48 33 -32 C 28 -19 -28 -18 -34 -40 Z" fill="none" stroke="#1D1A2C" stroke-width="3.6" stroke-linejoin="round" stroke-linecap="round"/>
</g>
<g transform="rotate(4 -12 -26)">
<clipPath id="c68"><path d="M-18 -28 C -18 -18 -17 -14 -18 -6 C -19 -1 -16 0 -11 0 L -6 0 C -2 0 -2 -4 -4 -7 C -6 -14 -6 -18 -6 -28 Z"/></clipPath>
<path d="M-18 -28 C -18 -18 -17 -14 -18 -6 C -19 -1 -16 0 -11 0 L -6 0 C -2 0 -2 -4 -4 -7 C -6 -14 -6 -18 -6 -28 Z" fill="#F27B2B"/>
<g clip-path="url(#c68)">
<path d="M-11 -32 L2 -32 L2 4 L-11 4 Z" fill="#C8521D"/>
<path d="M-24 -15 C -16 -17 -8 -17 2 -15 L2 4 L-24 4 Z" fill="#3B2A33"/><path d="M-10 -17 L2 -17 L2 4 L-10 4 Z" fill="#231820"/><path d="M-16 -3 C -14 -5 -10 -5 -9 -3" stroke="#5E4652" stroke-width="1.6" fill="none" stroke-linecap="round"/>
</g>
<path d="M-18 -28 C -18 -18 -17 -14 -18 -6 C -19 -1 -16 0 -11 0 L -6 0 C -2 0 -2 -4 -4 -7 C -6 -14 -6 -18 -6 -28 Z" fill="none" stroke="#1D1A2C" stroke-width="3.6" stroke-linejoin="round" stroke-linecap="round"/>
</g>
<g transform="rotate(-6 26 -26)">
<clipPath id="c69"><path d="M20 -28 C 20 -18 21 -14 20 -6 C 19 -1 22 0 27 0 L 32 0 C 36 0 36 -4 34 -7 C 32 -14 32 -18 32 -28 Z"/></clipPath>
<path d="M20 -28 C 20 -18 21 -14 20 -6 C 19 -1 22 0 27 0 L 32 0 C 36 0 36 -4 34 -7 C 32 -14 32 -18 32 -28 Z" fill="#F27B2B"/>
<g clip-path="url(#c69)">
<path d="M27 -32 L40 -32 L40 4 L27 4 Z" fill="#C8521D"/>
<path d="M14 -15 C 22 -17 30 -17 40 -15 L40 4 L14 4 Z" fill="#3B2A33"/><path d="M28 -17 L40 -17 L40 4 L28 4 Z" fill="#231820"/><path d="M22 -3 C 24 -5 28 -5 29 -3" stroke="#5E4652" stroke-width="1.6" fill="none" stroke-linecap="round"/>
</g>
<path d="M20 -28 C 20 -18 21 -14 20 -6 C 19 -1 22 0 27 0 L 32 0 C 36 0 36 -4 34 -7 C 32 -14 32 -18 32 -28 Z" fill="none" stroke="#1D1A2C" stroke-width="3.6" stroke-linejoin="round" stroke-linecap="round"/>
</g>
<g>
<clipPath id="c70"><path d="M12 -64 C 0 -68 -12 -79 -28 -77 C -24 -69.5 -18 -66 -12 -63 C -22 -61 -30 -57.5 -36 -49.5 C -20 -50 -4 -55 10 -57 Z"/></clipPath>
<path d="M12 -64 C 0 -68 -12 -79 -28 -77 C -24 -69.5 -18 -66 -12 -63 C -22 -61 -30 -57.5 -36 -49.5 C -20 -50 -4 -55 10 -57 Z" fill="#DB2A2E"/>
<g clip-path="url(#c70)">
<path d="M-40 -60 L 20 -60 L 20 -40 L -40 -40 Z" fill="#A3141D"/>
<path d="M-24 -77 C -14 -77 -4 -71 6 -67 C -6 -69 -14 -71 -24 -74 Z" fill="#FF6A55"/>

</g>
<path d="M12 -64 C 0 -68 -12 -79 -28 -77 C -24 -69.5 -18 -66 -12 -63 C -22 -61 -30 -57.5 -36 -49.5 C -20 -50 -4 -55 10 -57 Z" fill="none" stroke="#1D1A2C" stroke-width="3.2" stroke-linejoin="round" stroke-linecap="round"/>
</g>
<g><g>
<clipPath id="c71"><path d="M22 -104 C 20 -118 22 -130 28 -140 C 38 -130 44 -120 46 -110 Z"/></clipPath>
<path d="M22 -104 C 20 -118 22 -130 28 -140 C 38 -130 44 -120 46 -110 Z" fill="#CF5A20"/>
<g clip-path="url(#c71)">
<path d="M14 -126 C 20 -134 24 -140 28 -146 C 34 -140 38 -134 40 -128 Z" fill="#3B2A33"/>
</g>
<path d="M22 -104 C 20 -118 22 -130 28 -140 C 38 -130 44 -120 46 -110 Z" fill="none" stroke="#1D1A2C" stroke-width="3.6" stroke-linejoin="round" stroke-linecap="round"/>
</g>
<g>
<clipPath id="c72"><path d="M14 -84 C 10 -108 34 -120 54 -112 C 66 -106 70 -96 80 -90 C 88 -86 92 -80 86 -75 C 76 -68 62 -64 48 -61 C 30 -58 16 -66 14 -84 Z"/></clipPath>
<path d="M14 -84 C 10 -108 34 -120 54 -112 C 66 -106 70 -96 80 -90 C 88 -86 92 -80 86 -75 C 76 -68 62 -64 48 -61 C 30 -58 16 -66 14 -84 Z" fill="#F27B2B"/>
<g clip-path="url(#c72)">
<path d="M18 -64 C 40 -66 66 -70 96 -78 L 96 -50 L 8 -50 Z" fill="#C8521D"/>
<path d="M24 -104 C 32 -114 46 -116 54 -110 C 44 -109 34 -104 28 -96 Z" fill="#FFAA5E"/>
<path d="M46 -80 C 58 -80 72 -84 92 -84 L 92 -60 C 74 -58 54 -56 40 -62 Z" fill="#FFF4E0"/><path d="M44 -67 C 60 -65 78 -69 92 -73 L 92 -58 L 42 -58 Z" fill="#EACFA8"/><path d="M10 -82 C 18 -74 24 -66 36 -61 C 24 -60 14 -66 10 -74 Z" fill="#FFF4E0"/>
</g>
<path d="M14 -84 C 10 -108 34 -120 54 -112 C 66 -106 70 -96 80 -90 C 88 -86 92 -80 86 -75 C 76 -68 62 -64 48 -61 C 30 -58 16 -66 14 -84 Z" fill="none" stroke="#1D1A2C" stroke-width="3.6" stroke-linejoin="round" stroke-linecap="round"/>
</g>
<g>
<clipPath id="c73"><path d="M34 -104 C 32 -120 34 -132 40 -144 C 52 -134 60 -122 62 -110 Z"/></clipPath>
<path d="M34 -104 C 32 -120 34 -132 40 -144 C 52 -134 60 -122 62 -110 Z" fill="#F27B2B"/>
<g clip-path="url(#c73)">
<path d="M48 -146 L 72 -146 L 72 -96 L 50 -104 Z" fill="#C8521D"/>
<path d="M40 -108 C 40 -118 41 -126 44 -132 C 50 -124 53 -118 54 -110 Z" fill="#EACFA8"/><path d="M26 -128 C 32 -136 36 -142 40 -150 C 48 -142 52 -136 54 -130 Z" fill="#3B2A33"/>
</g>
<path d="M34 -104 C 32 -120 34 -132 40 -144 C 52 -134 60 -122 62 -110 Z" fill="none" stroke="#1D1A2C" stroke-width="3.6" stroke-linejoin="round" stroke-linecap="round"/>
</g>
<g>
<clipPath id="c74"><path d="M79 -89 C 84 -93 92 -92 93 -86 C 94 -80 86 -79 82 -81 C 78 -83 77 -87 79 -89 Z"/></clipPath>
<path d="M79 -89 C 84 -93 92 -92 93 -86 C 94 -80 86 -79 82 -81 C 78 -83 77 -87 79 -89 Z" fill="#3B2A33"/>
<g clip-path="url(#c74)">
<path d="M83 -90 C 86 -92 89 -91 90 -89 C 87 -89 85 -89 83 -88 Z" fill="#5E4652"/>

</g>
<path d="M79 -89 C 84 -93 92 -92 93 -86 C 94 -80 86 -79 82 -81 C 78 -83 77 -87 79 -89 Z" fill="none" stroke="#1D1A2C" stroke-width="2.6" stroke-linejoin="round" stroke-linecap="round"/>
</g>
<g>
<clipPath id="c75"><path d="M48 -94 C 48 -105 62 -105 62 -94 C 62 -84 48 -84 48 -94 Z"/></clipPath>
<path d="M48 -94 C 48 -105 62 -105 62 -94 C 62 -84 48 -84 48 -94 Z" fill="#3B2A33"/>
<g clip-path="url(#c75)">
<circle cx="57.5" cy="-98" r="3.4" fill="#fff"/><circle cx="52.5" cy="-89.5" r="1.6" fill="#fff"/>
</g>
<path d="M48 -94 C 48 -105 62 -105 62 -94 C 62 -84 48 -84 48 -94 Z" fill="none" stroke="#1D1A2C" stroke-width="2.6" stroke-linejoin="round" stroke-linecap="round"/>
</g>
<path d="M73 -75 Q 67 -71 61 -73" fill="none" stroke="#1D1A2C" stroke-width="2.8" stroke-linecap="round" stroke-linejoin="round" />
<path d="M46 -106 Q 54 -110 62 -107" fill="none" stroke="#1D1A2C" stroke-width="3" stroke-linecap="round" stroke-linejoin="round" />
<ellipse cx="42" cy="-80" rx="6.5" ry="3.8" fill="#FF6F6F" opacity="0.5"/></g>
<g>
<clipPath id="c76"><path d="M8 -72 C 16 -60 34 -56 50 -62 C 53 -56 51 -50 46 -48 C 30 -43 12 -47 3 -60 Z"/></clipPath>
<path d="M8 -72 C 16 -60 34 -56 50 -62 C 53 -56 51 -50 46 -48 C 30 -43 12 -47 3 -60 Z" fill="#DB2A2E"/>
<g clip-path="url(#c76)">
<path d="M0 -54 C 16 -50 34 -48 56 -54 L 56 -40 L 0 -40 Z" fill="#A3141D"/>
<path d="M14 -66 C 24 -60 36 -58 46 -60 C 36 -56 24 -58 14 -62 Z" fill="#FF6A55"/>
<circle cx="46" cy="-56" r="4.2" fill="#F6BB3E"/><circle cx="44.8" cy="-57.6" r="1.7" fill="#FFE39A"/>
</g>
<path d="M8 -72 C 16 -60 34 -56 50 -62 C 53 -56 51 -50 46 -48 C 30 -43 12 -47 3 -60 Z" fill="none" stroke="#1D1A2C" stroke-width="3.2" stroke-linejoin="round" stroke-linecap="round"/>
</g></g></svg>