<svg xmlns="http://www.w3.org/2000/svg" width="2340" height="844" viewBox="0 0 2340 844"><defs><filter id="fog" x="-10%" y="-100%" width="120%" height="300%"><feGaussianBlur stdDeviation="18"/></filter></defs><path d="M-40 844 L-40 232 L58 308 L159 243 L279 288 L430 196 L536 302 L647 236 L745 314 L904 192 L1055 292 L1159 227 L1296 295 L1451 188 L1547 300 L1687 213 L1791 305 L1887 184 L2042 302 L2155 186 L2288 289 L2288 844 Z" fill="#553E80"/>
<path d="M159 243 L 279 288 L 279 844 L 177.0 844 L 173.4 603.5999999999999 Z" fill="#44306C"/>
<path d="M430 196 L 536 302 L 536 844 L 445.9 844 L 442.72 584.8 Z" fill="#44306C"/>
<path d="M430 196 L 462 228 L 456 224 L 434 226 L 424 226 L 393 220 L 385 224 Z" fill="#B9A8E0"/>
<path d="M647 236 L 745 314 L 745 844 L 661.7 844 L 658.76 600.8 Z" fill="#44306C"/>
<path d="M904 192 L 1055 292 L 1055 844 L 926.65 844 L 922.12 583.2 Z" fill="#44306C"/>
<path d="M904 192 L 949 222 L 943 218 L 908 220 L 898 231 L 864 225 L 856 229 Z" fill="#B9A8E0"/>
<path d="M1159 227 L 1296 295 L 1296 844 L 1179.55 844 L 1175.44 597.2 Z" fill="#44306C"/>
<path d="M1451 188 L 1547 300 L 1547 844 L 1465.4 844 L 1462.52 581.5999999999999 Z" fill="#44306C"/>
<path d="M1451 188 L 1480 222 L 1474 218 L 1455 220 L 1445 222 L 1412 216 L 1404 220 Z" fill="#B9A8E0"/>
<path d="M1687 213 L 1791 305 L 1791 844 L 1702.6 844 L 1699.48 591.5999999999999 Z" fill="#44306C"/>
<path d="M1687 213 L 1718 241 L 1712 237 L 1691 239 L 1681 241 L 1653 235 L 1645 239 Z" fill="#B9A8E0"/>
<path d="M1887 184 L 2042 302 L 2042 844 L 1910.25 844 L 1905.6 580.0 Z" fill="#44306C"/>
<path d="M1887 184 L 1934 219 L 1928 215 L 1891 217 L 1881 222 L 1866 216 L 1858 220 Z" fill="#B9A8E0"/>
<path d="M2155 186 L 2288 289 L 2288 844 L 2174.95 844 L 2170.96 580.8 Z" fill="#44306C"/>
<path d="M2155 186 L 2195 217 L 2189 213 L 2159 215 L 2149 223 L 2129 217 L 2121 221 Z" fill="#B9A8E0"/>
<path d="M-40 844 L-40 280 L41 342 L117 267 L211 362 L314 296 L412 361 L489 274 L611 359 L696 262 L825 345 L921 241 L996 336 L1085 290 L1164 353 L1285 288 L1392 343 L1486 266 L1562 362 L1646 259 L1744 353 L1851 272 L1941 338 L2055 284 L2162 346 L2286 256 L2375 332 L2375 844 Z" fill="#3E2F6E"/>
<path d="M117 267 L 211 362 L 211 844 L 131.1 844 L 128.28 613.2 Z" fill="#2E225A"/>
<path d="M117 267 L 145 296 L 139 292 L 121 294 L 111 292 L 102 286 L 94 290 Z" fill="#B9A8E0"/>
<path d="M314 296 L 412 361 L 412 844 L 328.7 844 L 325.76 624.8 Z" fill="#2E225A"/>
<path d="M489 274 L 611 359 L 611 844 L 507.3 844 L 503.64 616.0 Z" fill="#2E225A"/>
<path d="M489 274 L 526 300 L 520 296 L 493 298 L 483 302 L 474 296 L 466 300 Z" fill="#B9A8E0"/>
<path d="M696 262 L 825 345 L 825 844 L 715.35 844 L 711.48 611.2 Z" fill="#2E225A"/>
<path d="M696 262 L 735 287 L 729 283 L 700 285 L 690 293 L 678 287 L 670 291 Z" fill="#B9A8E0"/>
<path d="M921 241 L 996 336 L 996 844 L 932.25 844 L 930.0 602.8 Z" fill="#2E225A"/>
<path d="M921 241 L 944 270 L 938 266 L 925 268 L 915 274 L 900 268 L 892 272 Z" fill="#B9A8E0"/>
<path d="M1085 290 L 1164 353 L 1164 844 L 1096.85 844 L 1094.48 622.4 Z" fill="#2E225A"/>
<path d="M1285 288 L 1392 343 L 1392 844 L 1301.05 844 L 1297.84 621.5999999999999 Z" fill="#2E225A"/>
<path d="M1486 266 L 1562 362 L 1562 844 L 1497.4 844 L 1495.12 612.8 Z" fill="#2E225A"/>
<path d="M1486 266 L 1509 295 L 1503 291 L 1490 293 L 1480 291 L 1466 285 L 1458 289 Z" fill="#B9A8E0"/>
<path d="M1646 259 L 1744 353 L 1744 844 L 1660.7 844 L 1657.76 610.0 Z" fill="#2E225A"/>
<path d="M1646 259 L 1675 287 L 1669 283 L 1650 285 L 1640 292 L 1629 286 L 1621 290 Z" fill="#B9A8E0"/>
<path d="M1851 272 L 1941 338 L 1941 844 L 1864.5 844 L 1861.8 615.2 Z" fill="#2E225A"/>
<path d="M1851 272 L 1878 292 L 1872 288 L 1855 290 L 1845 298 L 1827 292 L 1819 296 Z" fill="#B9A8E0"/>
<path d="M2055 284 L 2162 346 L 2162 844 L 2071.05 844 L 2067.84 620.0 Z" fill="#2E225A"/>
<path d="M2286 256 L 2375 332 L 2375 844 L 2299.35 844 L 2296.68 608.8 Z" fill="#2E225A"/>
<path d="M2286 256 L 2313 279 L 2307 275 L 2290 277 L 2280 285 L 2257 279 L 2249 283 Z" fill="#B9A8E0"/>
<rect x="0" y="330" width="2340" height="80" fill="#E27440" opacity="0.18" filter="url(#fog)"/>
<g>
<clipPath id="c515"><path d="M-20 844 L -20 380 C 43 355 169 355 233 387 C 296 356 424 356 487 381 C 540 356 645 356 698 382 C 774 364 927 364 1004 377 C 1053 350 1151 350 1200 383 C 1247 346 1341 346 1388 387 C 1459 354 1601 354 1672 375 C 1718 356 1811 356 1857 373 C 1910 361 2016 361 2068 372 C 2132 357 2259 357 2323 385 C 2389 353 2520 353 2586 380 L 2380 844 Z"/></clipPath>
<path d="M-20 844 L -20 380 C 43 355 169 355 233 387 C 296 356 424 356 487 381 C 540 356 645 356 698 382 C 774 364 927 364 1004 377 C 1053 350 1151 350 1200 383 C 1247 346 1341 346 1388 387 C 1459 354 1601 354 1672 375 C 1718 356 1811 356 1857 373 C 1910 361 2016 361 2068 372 C 2132 357 2259 357 2323 385 C 2389 353 2520 353 2586 380 L 2380 844 Z" fill="#44466E"/>
<g clip-path="url(#c515)">
<path d="M-20 420 L 2380 420 L 2380 844 L -20 844 Z" fill="#34385C"/>

</g>
</g></svg>